<svg id="Layer_1" data-name="Layer 1" xmlns="http://www.w3.org/2000/svg" xmlns:xlink="http://www.w3.org/1999/xlink" viewBox="0 0 415.17 151.02"><defs><style>.cls-1{fill:url(#linear-gradient);}</style><linearGradient id="linear-gradient" x1="98.42" y1="152" x2="513.58" y2="152" gradientUnits="userSpaceOnUse"><stop offset="0" stop-color="#01c0f3"/><stop offset="1" stop-color="#3d8be4"/></linearGradient></defs><title>audio crawl</title><path class="cls-1" d="M136.51,209.43l10,5.85a15.92,15.92,0,0,1-3.45,5.19,21.07,21.07,0,0,1-5.15,3.85,26.64,26.64,0,0,1-6.11,2.38,25.94,25.94,0,0,1-6.34.81,21.79,21.79,0,0,1-10-2.33,25.61,25.61,0,0,1-7.85-6.19,29.07,29.07,0,0,1-5.15-8.75,27.73,27.73,0,0,1-1.86-9.93,27.43,27.43,0,0,1,1.71-9.44,26.27,26.27,0,0,1,5-8.42,25.37,25.37,0,0,1,8-6,24.14,24.14,0,0,1,10.71-2.29,23,23,0,0,1,12.23,3.18,20.11,20.11,0,0,1,7.7,8.3l-9.33,6.52a11,11,0,0,0-2.08-3.44,11.43,11.43,0,0,0-2.74-2.23,10.54,10.54,0,0,0-3.08-1.18,14.84,14.84,0,0,0-3-.34,10.82,10.82,0,0,0-5.63,1.41,12.65,12.65,0,0,0-3.93,3.63,16.62,16.62,0,0,0-2.33,5,21.31,21.31,0,0,0-.78,5.71,19.5,19.5,0,0,0,.93,6,17,17,0,0,0,2.59,5.11,12.51,12.51,0,0,0,4,3.53,10.81,10.81,0,0,0,5.26,1.29,12.53,12.53,0,0,0,6.15-1.67,10,10,0,0,0,2.67-2.22A11,11,0,0,0,136.51,209.43Zm86.7-1.93,12.08,19.57H221.58l-10.6-17h-7.93v17H190.9V174.45h23.71a15.25,15.25,0,0,1,6.86,1.56,18.18,18.18,0,0,1,5.44,4.07,19.1,19.1,0,0,1,3.6,5.71,17,17,0,0,1,1.3,6.45,18.18,18.18,0,0,1-.6,4.7,18,18,0,0,1-1.7,4.26,15.75,15.75,0,0,1-2.71,3.6A16.17,16.17,0,0,1,223.21,207.5Zm-3.78-15.26a7.32,7.32,0,0,0-1.78-5.19,5.22,5.22,0,0,0-3.85-1.93H203.05V199.5h11.12a4.55,4.55,0,0,0,3.7-2A8.35,8.35,0,0,0,219.43,192.24ZM488.09,216.4v-42H475.94v52.62h37.64V216.4Zm-82.84-3.27L399.91,199l8.82-24.45H397.54l-5.41,16.82-5.26-16.82H375.61L384.35,199l-5.19,14.15-13.34-38.68H352.71l21,52.62h10.15l8.38-20.6,8.3,20.6h10.22l21-52.62H418.51Zm-97.64-38.68,20.16,52.62H314.88l-4.08-11.79H294.42l-4,11.79H277.53l20.23-52.62Zm1.12,32.46-6.08-19.56-6.3,19.56ZM128.5,76.78l20.16,52.62H135.77l-4.08-11.78H115.31l-4,11.78H98.42l20.23-52.62Zm1.11,32.46-6.07-19.56-6.3,19.56Zm94.67-5.55a28.81,28.81,0,0,1-.55,5.66,14.64,14.64,0,0,1-1.89,4.93,10.34,10.34,0,0,1-3.48,3.45,10.16,10.16,0,0,1-13.94-3.37,15.33,15.33,0,0,1-1.92-4.89,27,27,0,0,1-.6-5.78V76.78H189.75v26.91a37.35,37.35,0,0,0,1.3,9.93,23.56,23.56,0,0,0,4.07,8.33,20,20,0,0,0,7.23,5.75,24.51,24.51,0,0,0,10.74,2.15,24.82,24.82,0,0,0,10.49-2,19.79,19.79,0,0,0,7.26-5.6,23.7,23.7,0,0,0,4.23-8.3,36.81,36.81,0,0,0,1.37-10.22V76.78H224.28Zm257.41,26.16a22.56,22.56,0,0,1-10.23-2.3,25.85,25.85,0,0,1-7.89-6,27.54,27.54,0,0,1-5.12-8.56,27.92,27.92,0,0,1-1.81-9.93,27.21,27.21,0,0,1,1.89-10,26.85,26.85,0,0,1,5.26-8.48,25.67,25.67,0,0,1,8-5.86,23.51,23.51,0,0,1,10.12-2.18,22.62,22.62,0,0,1,10.23,2.3A25.48,25.48,0,0,1,500,84.86a27.26,27.26,0,0,1,5.07,8.6,27.93,27.93,0,0,1,1.78,9.78,27.74,27.74,0,0,1-7.11,18.49,25.48,25.48,0,0,1-8,5.89A23.1,23.1,0,0,1,481.69,129.85Zm-5.38-12.16a11.22,11.22,0,0,0,5.52,1.34,10.66,10.66,0,0,0,5.56-1.41,12.88,12.88,0,0,0,4-3.67,16.29,16.29,0,0,0,2.37-5.11,22,22,0,0,0,.78-5.82,20.71,20.71,0,0,0-.85-5.89,16.05,16.05,0,0,0-2.49-5,12.29,12.29,0,0,0-4-3.49,11.12,11.12,0,0,0-5.41-1.29,11,11,0,0,0-5.56,1.37,12.49,12.49,0,0,0-4,3.59,16.44,16.44,0,0,0-2.41,5.08,21.2,21.2,0,0,0-.82,5.82,20.42,20.42,0,0,0,.86,5.89,16.79,16.79,0,0,0,2.44,5.07A12,12,0,0,0,476.31,117.69Zm-78-40.91H386.13V129.4h12.15ZM299.35,129.4H279.71V76.78h19.64a29.08,29.08,0,0,1,11.41,2.08,23,23,0,0,1,13.16,14A30.76,30.76,0,0,1,325.59,103a30.18,30.18,0,0,1-1.86,10.86,23.31,23.31,0,0,1-5.3,8.3,23.75,23.75,0,0,1-8.3,5.33A29.47,29.47,0,0,1,299.35,129.4Zm-7.48-10.67h7.48a14.11,14.11,0,0,0,5.93-1.19,12.15,12.15,0,0,0,4.34-3.29,15.1,15.1,0,0,0,2.66-5,20.1,20.1,0,0,0,.93-6.26,20.44,20.44,0,0,0-.93-6.34,14.44,14.44,0,0,0-2.7-4.93,11.81,11.81,0,0,0-4.37-3.18,14.75,14.75,0,0,0-5.86-1.11h-7.48Z" transform="translate(-98.42 -76.49)"/></svg>