<?xml version="1.0" standalone="no"?>
<!DOCTYPE svg PUBLIC "-//W3C//DTD SVG 20010904//EN"
 "http://www.w3.org/TR/2001/REC-SVG-20010904/DTD/svg10.dtd">
<svg version="1.0" xmlns="http://www.w3.org/2000/svg"
 width="400.000000pt" height="400.000000pt" viewBox="0 0 400.000000 400.000000"
 preserveAspectRatio="xMidYMid meet">
<metadata>
Created by potrace 1.11, written by Peter Selinger 2001-2013
</metadata>
<g transform="translate(0.000000,400.000000) scale(0.100000,-0.100000)"
fill="#000000" stroke="none">
<path d="M1030 2530 c-162 -44 -311 -133 -463 -279 -98 -95 -227 -241 -226
-257 0 -10 50 -52 70 -59 8 -2 28 15 48 41 63 84 212 234 294 296 94 70 213
130 306 154 82 21 253 15 326 -10 194 -69 364 -204 570 -456 295 -361 568
-522 860 -507 210 11 397 104 598 296 97 93 227 241 227 257 0 5 -17 22 -37
38 l-37 30 -50 -60 c-166 -194 -312 -319 -451 -385 -106 -51 -181 -69 -285
-69 -251 0 -491 153 -753 482 -199 249 -401 405 -617 478 -97 33 -279 37 -380
10z"/>
</g>
</svg>
